<svg version="1.1" xmlns="http://www.w3.org/2000/svg" viewBox="0 0 471 320" width="471" height="320">
  <!-- svg-source:excalidraw -->
  
  <defs>
    <style class="style-fonts">
      @font-face {
        font-family: "Virgil";
        src: url("https://excalidraw.com/Virgil.woff2");
      }
      @font-face {
        font-family: "Cascadia";
        src: url("https://excalidraw.com/Cascadia.woff2");
      }
    </style>
    
  </defs>
  <rect x="0" y="0" width="471" height="320" fill="#ffffff"></rect><g stroke-linecap="round" transform="translate(158 10) rotate(0 76.5 24.5)"><path d="M12.25 0 C40.61 1.23, 69.37 -0.26, 140.75 0 M12.25 0 C44.37 0.44, 76.65 -0.19, 140.75 0 M140.75 0 C149.09 -0.94, 152.2 3.33, 153 12.25 M140.75 0 C148.25 0.05, 152.12 4.71, 153 12.25 M153 12.25 C152.35 18.06, 152.23 25.34, 153 36.75 M153 12.25 C153.08 20.96, 153.35 29.48, 153 36.75 M153 36.75 C152.17 44.42, 149.51 49.28, 140.75 49 M153 36.75 C151.94 43.92, 148.73 48.71, 140.75 49 M140.75 49 C93.1 49.82, 45.48 49.68, 12.25 49 M140.75 49 C91.63 49.15, 42.63 48.5, 12.25 49 M12.25 49 C4.84 48.63, -0.43 45.48, 0 36.75 M12.25 49 C3.37 47.99, -0.02 44.48, 0 36.75 M0 36.75 C-0.36 31.58, 0.09 26.63, 0 12.25 M0 36.75 C-0.07 31.97, -0.21 26.17, 0 12.25 M0 12.25 C0.69 4.24, 3.97 0.65, 12.25 0 M0 12.25 C-0.3 4.48, 3.62 0.22, 12.25 0" stroke="#1e1e1e" stroke-width="2" fill="none"></path></g><g transform="translate(181.75 22) rotate(0 52.75 12.5)"><text x="52.75" y="0" font-family="Virgil, Segoe UI Emoji" font-size="20px" fill="#1e1e1e" text-anchor="middle" style="white-space: pre;" direction="ltr" dominant-baseline="text-before-edge">executable</text></g><g stroke-linecap="round" transform="translate(10 155.5) rotate(0 76.5 24.5)"><path d="M12.25 0 C39.46 0.39, 66.83 1.38, 140.75 0 M12.25 0 C45.82 0.46, 79.41 0.15, 140.75 0 M140.75 0 C148 0.71, 153.81 3.67, 153 12.25 M140.75 0 C149.18 1.03, 153.25 3.68, 153 12.25 M153 12.25 C152.2 19.61, 152.46 27.48, 153 36.75 M153 12.25 C152.73 21.47, 153.3 29.77, 153 36.75 M153 36.75 C152.07 45.21, 148.66 48.36, 140.75 49 M153 36.75 C153.17 44.07, 147.86 49.02, 140.75 49 M140.75 49 C115.7 49.03, 89.16 47.66, 12.25 49 M140.75 49 C115.1 48.33, 89.22 48.54, 12.25 49 M12.25 49 C3.3 48.4, -0.24 44.01, 0 36.75 M12.25 49 C5.02 50.02, 0.09 45.06, 0 36.75 M0 36.75 C0.43 27.15, 0.07 20.17, 0 12.25 M0 36.75 C-0.27 27.68, -0.18 18.86, 0 12.25 M0 12.25 C0.01 3.53, 4 0.93, 12.25 0 M0 12.25 C0.93 3.01, 4.63 -0.51, 12.25 0" stroke="#1e1e1e" stroke-width="2" fill="none"></path></g><g transform="translate(43.68333435058594 167.5) rotate(0 42.81666564941406 12.5)"><text x="42.81666564941406" y="0" font-family="Virgil, Segoe UI Emoji" font-size="20px" fill="#1e1e1e" text-anchor="middle" style="white-space: pre;" direction="ltr" dominant-baseline="text-before-edge">foo.so 1.1</text></g><g stroke-linecap="round" transform="translate(308 155.5) rotate(0 76.5 24.5)"><path d="M12.25 0 C58.78 -0.2, 104.45 0.23, 140.75 0 M12.25 0 C44.72 0.61, 77.7 0.04, 140.75 0 M140.75 0 C149.55 -0.41, 153.03 3.84, 153 12.25 M140.75 0 C148.01 0.77, 153.22 3.11, 153 12.25 M153 12.25 C152.06 20.09, 153.02 29.17, 153 36.75 M153 12.25 C152.92 21.62, 153 31.04, 153 36.75 M153 36.75 C153.03 45.21, 148.1 48.94, 140.75 49 M153 36.75 C153.51 45.98, 148.52 47.99, 140.75 49 M140.75 49 C113.88 48.54, 89.07 48.86, 12.25 49 M140.75 49 C92.23 48.8, 44.65 49.04, 12.25 49 M12.25 49 C3.68 48.37, -0.07 45.54, 0 36.75 M12.25 49 C4.85 47.98, 0.91 45.4, 0 36.75 M0 36.75 C-0.67 30.3, 0.33 23.71, 0 12.25 M0 36.75 C0.03 27.47, 0.46 17.96, 0 12.25 M0 12.25 C-0.51 4.89, 3.67 -0.61, 12.25 0 M0 12.25 C-0.03 4.96, 4.94 0.48, 12.25 0" stroke="#1e1e1e" stroke-width="2" fill="none"></path></g><g transform="translate(354.7333335876465 167.5) rotate(0 29.766666412353516 12.5)"><text x="29.766666412353516" y="0" font-family="Virgil, Segoe UI Emoji" font-size="20px" fill="#1e1e1e" text-anchor="middle" style="white-space: pre;" direction="ltr" dominant-baseline="text-before-edge">bar.so</text></g><g stroke-linecap="round" transform="translate(308 261) rotate(0 76.5 24.5)"><path d="M12.25 0 C41.03 0.55, 68.42 0.56, 140.75 0 M12.25 0 C41.34 -0.21, 69.56 -0.45, 140.75 0 M140.75 0 C148.02 0.46, 152.91 3.89, 153 12.25 M140.75 0 C149.34 1.07, 153.01 3.1, 153 12.25 M153 12.25 C152.54 20.49, 153.06 30.12, 153 36.75 M153 12.25 C152.49 21.13, 153.01 29.56, 153 36.75 M153 36.75 C153.43 45.82, 148.49 48.38, 140.75 49 M153 36.75 C152.64 45.97, 148.89 48.14, 140.75 49 M140.75 49 C109.9 48.25, 79.56 47.9, 12.25 49 M140.75 49 C89.98 48.9, 39.46 49.38, 12.25 49 M12.25 49 C3.57 49.55, 0.11 45.19, 0 36.75 M12.25 49 C3.17 48.18, 0.64 43.87, 0 36.75 M0 36.75 C0.77 30.73, 0.21 23.25, 0 12.25 M0 36.75 C-0.01 29.42, 0.45 22.36, 0 12.25 M0 12.25 C0.44 3.17, 4.96 -0.38, 12.25 0 M0 12.25 C0.15 4.18, 4.22 0.04, 12.25 0" stroke="#1e1e1e" stroke-width="2" fill="none"></path></g><g transform="translate(341.81666564941406 273) rotate(0 42.68333435058594 12.5)"><text x="42.68333435058594" y="0" font-family="Virgil, Segoe UI Emoji" font-size="20px" fill="#1e1e1e" text-anchor="middle" style="white-space: pre;" direction="ltr" dominant-baseline="text-before-edge">foo.a 1.0</text></g><g stroke-linecap="round"><g transform="translate(236 59) rotate(0 -71 46)"><path d="M0 0 C-23.67 15.33, -118.33 76.67, -142 92 M0 0 C-23.67 15.33, -118.33 76.67, -142 92" stroke="#1e1e1e" stroke-width="2" fill="none"></path></g><g transform="translate(236 59) rotate(0 -71 46)"><path d="M-142 92 L-134.04 79.29 L-127.14 89.93 L-142 92" stroke="none" stroke-width="0" fill="#1e1e1e" fill-rule="evenodd"></path><path d="M-142 92 C-139.1 87.37, -136.2 82.73, -134.04 79.29 M-142 92 C-139.85 88.57, -137.7 85.14, -134.04 79.29 M-134.04 79.29 C-132.1 82.28, -130.16 85.27, -127.14 89.93 M-134.04 79.29 C-131.55 83.13, -129.06 86.97, -127.14 89.93 M-127.14 89.93 C-131.93 90.6, -136.73 91.26, -142 92 M-127.14 89.93 C-132.17 90.63, -137.2 91.33, -142 92 M-142 92 C-142 92, -142 92, -142 92 M-142 92 C-142 92, -142 92, -142 92" stroke="#1e1e1e" stroke-width="2" fill="none"></path></g></g><mask></mask><g stroke-linecap="round"><g transform="translate(234 60) rotate(0 77 47.5)"><path d="M0 0 C25.67 15.83, 128.33 79.17, 154 95 M0 0 C25.67 15.83, 128.33 79.17, 154 95" stroke="#1e1e1e" stroke-width="2" fill="none"></path></g><g transform="translate(234 60) rotate(0 77 47.5)"><path d="M154 95 L139.1 93.26 L145.76 82.47 L154 95" stroke="none" stroke-width="0" fill="#1e1e1e" fill-rule="evenodd"></path><path d="M154 95 C150.7 94.61, 147.4 94.23, 139.1 93.26 M154 95 C149.85 94.51, 145.69 94.03, 139.1 93.26 M139.1 93.26 C141.08 90.04, 143.07 86.83, 145.76 82.47 M139.1 93.26 C140.7 90.67, 142.29 88.08, 145.76 82.47 M145.76 82.47 C148.19 86.16, 150.62 89.86, 154 95 M145.76 82.47 C149 87.4, 152.25 92.34, 154 95 M154 95 C154 95, 154 95, 154 95 M154 95 C154 95, 154 95, 154 95" stroke="#1e1e1e" stroke-width="2" fill="none"></path></g></g><mask></mask><g stroke-linecap="round"><g transform="translate(389 204) rotate(0 0 28.5)"><path d="M0 0 C0 9.5, 0 47.5, 0 57 M0 0 C0 9.5, 0 47.5, 0 57" stroke="#1e1e1e" stroke-width="2" fill="none"></path></g><g transform="translate(389 204) rotate(0 0 28.5)"><path d="M0 57 L-6.34 43.41 L6.34 43.41 L0 57" stroke="none" stroke-width="0" fill="#1e1e1e" fill-rule="evenodd"></path><path d="M0 57 C-2.41 51.84, -4.81 46.68, -6.34 43.41 M0 57 C-1.6 53.56, -3.21 50.13, -6.34 43.41 M-6.34 43.41 C-2.69 43.41, 0.95 43.41, 6.34 43.41 M-6.34 43.41 C-2.04 43.41, 2.27 43.41, 6.34 43.41 M6.34 43.41 C4.41 47.55, 2.47 51.69, 0 57 M6.34 43.41 C4.33 47.72, 2.31 52.04, 0 57 M0 57 C0 57, 0 57, 0 57 M0 57 C0 57, 0 57, 0 57" stroke="#1e1e1e" stroke-width="2" fill="none"></path></g></g><mask></mask></svg>